<svg width="42" height="42" viewBox="0 0 42 42" fill="none" xmlns="http://www.w3.org/2000/svg">
<g clip-path="url(#clip0)">
<path d="M6.29999 34C6.19999 34.4 5.99999 34.8 5.89999 35.2" stroke="#36C233" stroke-width="1.5" stroke-miterlimit="10"/>
<path d="M16.4 26.9C12.3 26.9 8.8 29.2 7 32.5" stroke="#36C233" stroke-width="1.5" stroke-miterlimit="10"/>
<path d="M2.8 37.7C2.8 30.1 8.8 24 16.4 24C24 24 30 30.1 30 37.7V37.8" stroke="#36C233" stroke-width="1.5" stroke-miterlimit="10"/>
<path d="M1.10001 37.7C12.5 37.7 20.3 37.7 31.7 37.7L30.6 40.7C19.9 40.7 12.8 40.7 2.10001 40.7L1.10001 37.7Z" stroke="#36C233" stroke-width="1.5" stroke-miterlimit="10"/>
<path d="M14 24.2C13.9 24 13.9 23.8 13.9 23.5C13.9 22.1 15 21 16.4 21C17.8 21 18.9 22.1 18.9 23.5C18.9 23.7 18.9 24 18.8 24.2" stroke="#36C233" stroke-width="1.5" stroke-miterlimit="10"/>
<path d="M33.3 40.7H40.2C40.6 40.7 41 40.3 41 39.9V5.1C41 4.7 40.6 4.3 40.2 4.3H16.4V18.7" stroke="#36C233" stroke-width="1.5" stroke-miterlimit="10"/>
<path d="M38.4 4.4V1.4C38.4 0.999997 38.1 0.699997 37.7 0.699997L16.4 4.4" stroke="#36C233" stroke-width="1.5" stroke-miterlimit="10"/>
<path d="M23.2 8.39999H38.8" stroke="#36C233" stroke-width="1.5" stroke-miterlimit="10"/>
<path d="M21.3 8.39999H18.6" stroke="#36C233" stroke-width="1.5" stroke-miterlimit="10"/>
<path d="M23.2 12.5H38.8" stroke="#36C233" stroke-width="1.5" stroke-miterlimit="10"/>
<path d="M21.3 12.5H18.6" stroke="#36C233" stroke-width="1.5" stroke-miterlimit="10"/>
<path d="M23.2 16.5H38.8" stroke="#36C233" stroke-width="1.5" stroke-miterlimit="10"/>
<path d="M21.3 16.5H18.6" stroke="#36C233" stroke-width="1.5" stroke-miterlimit="10"/>
<path d="M23.2 20.6H38.8" stroke="#36C233" stroke-width="1.5" stroke-miterlimit="10"/>
<path d="M21.3 20.6H18.6" stroke="#36C233" stroke-width="1.5" stroke-miterlimit="10"/>
<path d="M26.5 24.6H38.8" stroke="#36C233" stroke-width="1.5" stroke-miterlimit="10"/>
<path d="M30.2 28.7H38.8" stroke="#36C233" stroke-width="1.5" stroke-miterlimit="10"/>
<path d="M32.1 32.8H38.8" stroke="#36C233" stroke-width="1.5" stroke-miterlimit="10"/>
</g>
<defs>
<clipPath id="clip0">
<rect width="41.7" height="41.5" fill="white"/>
</clipPath>
</defs>
</svg>
