<svg width="42" height="42" viewBox="0 0 42 42" fill="none" xmlns="http://www.w3.org/2000/svg">
<g clip-path="url(#clip0)">
<path d="M8.10001 25.4V2.40001C8.10001 1.50001 8.90001 0.700012 9.80001 0.700012H32.7L40.8 8.80001V39.1C40.8 40 40.1 40.8 39.1 40.8H11.4" stroke="#36C233" stroke-width="1.5" stroke-miterlimit="10"/>
<path d="M40.7 8.79999H34C33.2 8.79999 32.6 8.19999 32.6 7.39999V4.29999" stroke="#36C233" stroke-width="1.5" stroke-miterlimit="10"/>
<path d="M4.4 30.8C-0.100003 31.1 -0.600003 37.4 4.1 40.5C4.9 40.9 5.6 40.9 6.5 40.3C7.4 40.9 8.1 40.9 8.9 40.5C13.3 37.7 13.1 32 9.6 31C8.6 30.7 7.6 30.7 6.6 30.8L4.6 28.2" stroke="#36C233" stroke-width="1.5" stroke-miterlimit="10"/>
<path d="M5.7 29.8C5.7 27.9 6.9 27.1 9.1 27.2C9.3 28.9 7.3 30.2 5.7 29.8Z" stroke="#36C233" stroke-width="1.5" stroke-miterlimit="10"/>
<path d="M4.89999 32.2C5.79999 33.1 6.79999 33.1 7.69999 32.2" stroke="#36C233" stroke-width="1.5" stroke-miterlimit="10"/>
<path d="M11.9 17.5C15.6 17.4 18.6 16.4 19.6 13.1C20.2 15.4 20.9 17.7 21.5 20C22.3 15.7 23 11.4 23.8 7.10001C24.8 9.90001 25.8 12.7 26.8 15.4C27.5 14.8 28.2 14.2 28.9 13.6C29.7 15.1 30.5 16.6 31.4 18.1C31.8 17.3 32.3 16.5 32.7 15.8C33.5 16.8 35 17 36.8 16.9" stroke="#36C233" stroke-width="1.5" stroke-miterlimit="10" stroke-linejoin="round"/>
<path d="M10.9 5.79999V22.1H38" stroke="#36C233" stroke-width="1.5" stroke-miterlimit="10"/>
<path d="M18.9 26H29.9" stroke="#36C233" stroke-width="1.5" stroke-miterlimit="10"/>
<path d="M15.7 30.2H18.9M21.7 30.2H35.6H21.7Z" stroke="#36C233" stroke-width="1.5" stroke-miterlimit="10"/>
<path d="M15.7 33.3H18.9M21.7 33.3H35.6H21.7Z" stroke="#36C233" stroke-width="1.5" stroke-miterlimit="10"/>
<path d="M15.7 36.3H18.9M21.7 36.3H35.6H21.7Z" stroke="#36C233" stroke-width="1.5" stroke-miterlimit="10"/>
</g>
<defs>
<clipPath id="clip0">
<rect width="41.5" height="41.5" fill="white"/>
</clipPath>
</defs>
</svg>
