<svg width="20" height="21" viewBox="0 0 20 21" fill="none" xmlns="http://www.w3.org/2000/svg">
<g clip-path="url(#clip0)">
<path d="M4.59998 7.1V2.2C4.59998 1.3 5.39998 0.5 6.29998 0.5H17.2C18.2 0.5 18.9 1.3 18.9 2.2V17.1C18.9 18 18.3 18.7 17.5 18.8" stroke="#36C233" stroke-miterlimit="10"/>
<path d="M10.7 18.8002H6.29998C5.29998 18.8002 4.59998 18.0002 4.59998 17.1002V12.2002" stroke="#36C233" stroke-miterlimit="10"/>
<path d="M17.7 18.7001L11.7 20.4001C11.2 20.6001 10.7 20.2001 10.7 19.6001V3.4001C10.7 2.8001 11.1 2.2001 11.7 2.1001L17.8 0.600098" stroke="#36C233" stroke-miterlimit="10"/>
<path d="M12.8 10V13.1" stroke="#36C233" stroke-miterlimit="10"/>
<path d="M0 9.7002H9.2" stroke="#36C233" stroke-miterlimit="10"/>
<path d="M6.40002 6.7998L9.20002 9.6998L6.40002 12.4998" stroke="#36C233" stroke-miterlimit="10"/>
</g>
<defs>
<clipPath id="clip0">
<rect width="19.4" height="21" fill="white"/>
</clipPath>
</defs>
</svg>
