<svg width="45" height="42" viewBox="0 0 45 42" fill="none" xmlns="http://www.w3.org/2000/svg">
<g clip-path="url(#clip0)">
<path d="M37.8 12.4C37.8 17.2 34 21 29.3 21H14.3V12.4H37.8Z" stroke="#36C233" stroke-width="1.5" stroke-miterlimit="10"/>
<path d="M14.2 12.4C11 12.4 6.1 12.4 3.9 12.4C2 12.4 0.699997 13.8 0.699997 15.6C0.699997 17.4 2.3 18.8 3.9 18.8C5.5 18.8 6.5 17.9 6.9 16.6H14.1" stroke="#36C233" stroke-width="1.5" stroke-miterlimit="10"/>
<path d="M9.89999 10.5V2.29999C9.89999 1.49999 10.6 0.799988 11.4 0.799988H42.5C43.3 0.799988 44 1.49999 44 2.29999V39.2C44 40 43.3 40.7 42.5 40.7H11.4C10.6 40.7 9.89999 40 9.89999 39.2V18.6" stroke="#36C233" stroke-width="1.5" stroke-miterlimit="10"/>
<path d="M22.4 27.5L26.7 31.8" stroke="#36C233" stroke-width="1.5" stroke-miterlimit="10"/>
<path d="M28.3 27.5L32.6 31.8" stroke="#36C233" stroke-width="1.5" stroke-miterlimit="10"/>
<path d="M34.3 27.5L38.6 31.8" stroke="#36C233" stroke-width="1.5" stroke-miterlimit="10"/>
<path d="M16.8 16.7H32.7" stroke="#36C233" stroke-width="1.5" stroke-miterlimit="10"/>
</g>
<defs>
<clipPath id="clip0">
<rect width="44.8" height="41.5" fill="white"/>
</clipPath>
</defs>
</svg>
