<svg width="20" height="21" viewBox="0 0 20 21" fill="none" xmlns="http://www.w3.org/2000/svg">
<path d="M2.00002 8.89999H9.00002H11.3H18C19.1 8.89999 19.7 9.79999 19.4 10.9L17.4 18.3C17.1 19.5 15.8 20.5 14.7 20.5H14.2H5.80002H5.40002C4.20002 20.5 3.00002 19.5 2.70002 18.3L0.700018 10.9C0.300018 9.79999 0.900018 8.89999 2.00002 8.89999Z" stroke="#9B9B9B" stroke-miterlimit="10"/>
<path d="M5.19995 12.4V18.2" stroke="#9B9B9B" stroke-miterlimit="10"/>
<path d="M8.3999 12.4V18.2" stroke="#9B9B9B" stroke-miterlimit="10"/>
<path d="M11.6001 12.4V18.2" stroke="#9B9B9B" stroke-miterlimit="10"/>
<path d="M14.8 12.4V18.2" stroke="#9B9B9B" stroke-miterlimit="10"/>
<path d="M3 6.5C3.5 3.1 6.4 0.5 10 0.5C13.5 0.5 16.5 3.1 17 6.5" stroke="#9B9B9B" stroke-miterlimit="10"/>
</svg>
