<svg width="16" height="16" viewBox="0 0 16 16" fill="none" xmlns="http://www.w3.org/2000/svg">
<g clip-path="url(#clip0)">
<path fill-rule="evenodd" clip-rule="evenodd" d="M5.757 1.07112C5.81335 1.10486 5.86249 1.14938 5.90163 1.20212C5.94077 1.25485 5.96914 1.31479 5.98511 1.37849C6.00108 1.4422 6.00435 1.50842 5.99472 1.57339C5.98509 1.63836 5.96276 1.70079 5.929 1.75712L3.383 6.00012H12.617L10.07 1.75712C10.0018 1.64335 9.98167 1.50715 10.0139 1.3785C10.0462 1.24985 10.1282 1.13928 10.242 1.07112C10.3558 1.00296 10.492 0.982792 10.6206 1.01505C10.7493 1.0473 10.8598 1.12935 10.928 1.24312L13.783 6.00012H15C15.2652 6.00012 15.5196 6.10548 15.7071 6.29302C15.8946 6.48055 16 6.73491 16 7.00012V8.00012C16 8.26534 15.8946 8.51969 15.7071 8.70723C15.5196 8.89477 15.2652 9.00012 15 9.00012V13.5001C15 14.1632 14.7366 14.799 14.2678 15.2679C13.7989 15.7367 13.163 16.0001 12.5 16.0001H3.5C2.83696 16.0001 2.20107 15.7367 1.73223 15.2679C1.26339 14.799 1 14.1632 1 13.5001V9.00012C0.734784 9.00012 0.48043 8.89477 0.292893 8.70723C0.105357 8.51969 0 8.26534 0 8.00012V7.00012C0 6.73491 0.105357 6.48055 0.292893 6.29302C0.48043 6.10548 0.734784 6.00012 1 6.00012H2.217L5.07 1.24312C5.10374 1.18678 5.14825 1.13763 5.20099 1.09849C5.25373 1.05935 5.31366 1.03098 5.37737 1.01501C5.44107 0.99904 5.5073 0.995774 5.57227 1.0054C5.63723 1.01503 5.69967 1.03736 5.756 1.07112H5.757ZM2 9.00012V13.5001C2 13.8979 2.15804 14.2795 2.43934 14.5608C2.72064 14.8421 3.10218 15.0001 3.5 15.0001H12.5C12.8978 15.0001 13.2794 14.8421 13.5607 14.5608C13.842 14.2795 14 13.8979 14 13.5001V9.00012H2ZM1 7.00012V8.00012H15V7.00012H1ZM4 10.0001C4.13261 10.0001 4.25979 10.0528 4.35355 10.1466C4.44732 10.2403 4.5 10.3675 4.5 10.5001V13.5001C4.5 13.6327 4.44732 13.7599 4.35355 13.8537C4.25979 13.9474 4.13261 14.0001 4 14.0001C3.86739 14.0001 3.74021 13.9474 3.64645 13.8537C3.55268 13.7599 3.5 13.6327 3.5 13.5001V10.5001C3.5 10.3675 3.55268 10.2403 3.64645 10.1466C3.74021 10.0528 3.86739 10.0001 4 10.0001ZM6 10.0001C6.13261 10.0001 6.25979 10.0528 6.35355 10.1466C6.44732 10.2403 6.5 10.3675 6.5 10.5001V13.5001C6.5 13.6327 6.44732 13.7599 6.35355 13.8537C6.25979 13.9474 6.13261 14.0001 6 14.0001C5.86739 14.0001 5.74021 13.9474 5.64645 13.8537C5.55268 13.7599 5.5 13.6327 5.5 13.5001V10.5001C5.5 10.3675 5.55268 10.2403 5.64645 10.1466C5.74021 10.0528 5.86739 10.0001 6 10.0001ZM8 10.0001C8.13261 10.0001 8.25979 10.0528 8.35355 10.1466C8.44732 10.2403 8.5 10.3675 8.5 10.5001V13.5001C8.5 13.6327 8.44732 13.7599 8.35355 13.8537C8.25979 13.9474 8.13261 14.0001 8 14.0001C7.86739 14.0001 7.74021 13.9474 7.64645 13.8537C7.55268 13.7599 7.5 13.6327 7.5 13.5001V10.5001C7.5 10.3675 7.55268 10.2403 7.64645 10.1466C7.74021 10.0528 7.86739 10.0001 8 10.0001ZM10 10.0001C10.1326 10.0001 10.2598 10.0528 10.3536 10.1466C10.4473 10.2403 10.5 10.3675 10.5 10.5001V13.5001C10.5 13.6327 10.4473 13.7599 10.3536 13.8537C10.2598 13.9474 10.1326 14.0001 10 14.0001C9.86739 14.0001 9.74021 13.9474 9.64645 13.8537C9.55268 13.7599 9.5 13.6327 9.5 13.5001V10.5001C9.5 10.3675 9.55268 10.2403 9.64645 10.1466C9.74021 10.0528 9.86739 10.0001 10 10.0001ZM12 10.0001C12.1326 10.0001 12.2598 10.0528 12.3536 10.1466C12.4473 10.2403 12.5 10.3675 12.5 10.5001V13.5001C12.5 13.6327 12.4473 13.7599 12.3536 13.8537C12.2598 13.9474 12.1326 14.0001 12 14.0001C11.8674 14.0001 11.7402 13.9474 11.6464 13.8537C11.5527 13.7599 11.5 13.6327 11.5 13.5001V10.5001C11.5 10.3675 11.5527 10.2403 11.6464 10.1466C11.7402 10.0528 11.8674 10.0001 12 10.0001Z" fill="#46485B"/>
</g>
<defs>
<clipPath id="clip0">
<rect width="16" height="16" fill="white"/>
</clipPath>
</defs>
</svg>
