<svg id="Слой_1" data-name="Слой 1" xmlns="http://www.w3.org/2000/svg" width="20" height="20" viewBox="0 0 20 20"><defs><style>.cls-1{fill:#797979;}</style></defs><title>Безымянный-1</title><path class="cls-1" d="M10.83,3H3.52c-.36,0-.47.07-.47.44q0,5.08,0,10.17c0,.75.23,1,1,1h8a3.39,3.39,0,0,1,.45,0,.45.45,0,0,1,.45.52.44.44,0,0,1-.47.45H4a1.77,1.77,0,0,1-2-1.95V2c0-.71,0-.71-.76-.71a4,4,0,0,1-.49,0A.47.47,0,0,1,.28.71.46.46,0,0,1,.78.23c.58,0,1.16,0,1.73,0a.51.51,0,0,1,.55.55c0,.36-.17.86.07,1.06s.79.07,1.2.07H18c1.61,0,2.38,1,1.88,2.52l-2.16,6.4a3.05,3.05,0,0,1-3.27,2.31H5.32a1.93,1.93,0,0,1-.34,0c-.29,0-.51-.15-.52-.47s.21-.48.52-.53c.13,0,.27,0,.4,0h9.09a1.92,1.92,0,0,0,2.14-1.48c.77-2.22,1.52-4.44,2.28-6.66.23-.68,0-1-.79-1Z"/><path class="cls-1" d="M3.76,20a1.7,1.7,0,1,1,0-3.39,1.7,1.7,0,1,1,0,3.39Zm0-1a.71.71,0,0,0,.71-.67.7.7,0,1,0-1.4,0A.69.69,0,0,0,3.75,18.94Z"/><path class="cls-1" d="M12.46,16.56a1.7,1.7,0,1,1,0,3.39,1.7,1.7,0,1,1,0-3.39Zm0,2.38a.69.69,0,0,0,0-1.37.71.71,0,0,0-.69.73A.69.69,0,0,0,12.51,18.94Z"/></svg>