<svg width="366" height="71" viewBox="0 0 366 71" fill="none" xmlns="http://www.w3.org/2000/svg">
<path d="M24.4086 9.95833C18.7262 2.97473 9.81511 2.71607 6.06988 13.4501C4.39098 18.4939 3.09952 20.1751 4.39098 26.6414C5.94073 34.2716 12.398 33.8837 19.7594 32.7197C20.2759 34.013 20.4051 34.7889 20.6634 35.9529C12.5272 38.2807 4.13269 37.6341 1.16233 29.2279C-2.06632 20.1751 1.9372 11.3809 7.87792 4.39731C13.1729 -1.81034 22.8589 3.88001 26.8624 8.40642C25.8292 9.05305 25.3126 9.3117 24.4086 9.95833Z" fill="#496B44"/>
<path d="M44.8138 41.6429C41.9726 42.0309 34.4821 41.6429 31.5117 40.9963C27.7665 40.091 26.2168 35.5646 26.475 32.4607C26.7333 27.417 28.1539 22.244 32.2866 19.2695C34.2238 17.8469 42.6183 17.8469 44.8138 21.2094C46.751 24.1839 46.3635 27.6757 43.6515 28.8396C40.8103 30.0035 33.7072 29.7449 29.8328 28.8396C29.1871 31.8141 29.058 34.6593 30.6077 36.8578C32.1575 38.927 43.9098 39.5737 44.8138 39.703C44.8138 40.479 44.8138 40.8669 44.8138 41.6429ZM42.2309 25.2185C42.2309 22.3733 41.456 21.2094 36.6776 21.7267C33.8364 22.1147 31.6409 23.5372 30.6077 25.9944C33.8364 25.9944 39.2605 25.7358 42.2309 25.2185Z" fill="#496B44"/>
<path d="M55.7911 22.6323C55.6619 23.1496 55.5328 23.5375 55.5328 24.0549C61.4735 22.115 65.8645 24.9601 67.6725 29.3572C69.6097 34.013 67.4142 41.2552 64.7022 45.2643C61.861 49.4028 55.1454 48.7561 51.5293 45.6523C50.7544 49.5321 50.4961 54.3171 49.3338 57.2916C48.5589 59.3609 44.6845 57.1623 44.9428 55.3517C46.2343 45.2643 50.8835 32.849 53.7248 21.5977C54.4996 21.9856 55.0162 22.2443 55.7911 22.6323ZM52.3041 41.3845C53.2082 44.747 59.1489 46.5576 61.7318 42.5485C64.0564 39.0567 66.6394 31.4264 63.7982 27.8053C62.6358 26.2534 56.4368 25.3481 55.2745 27.0293C54.1122 32.7197 53.4665 35.5649 52.3041 41.3845Z" fill="#496B44"/>
<path d="M80.4581 26.3823C83.5576 26.641 86.0114 26.641 88.7234 28.4515C91.5646 30.3914 89.3692 37.1164 86.7862 38.151C90.4023 41.2548 90.5315 45.6519 88.0777 49.273C84.5908 54.1874 73.3551 52.3769 70.1264 47.8504C71.1596 43.712 72.0636 39.5736 73.0968 35.4351C73.7425 32.4606 74.5174 29.4861 75.1631 26.5117C77.2294 26.5117 78.2626 26.5117 80.4581 26.3823ZM75.938 35.9525C79.5541 36.0818 84.3325 38.539 86.2697 31.2967C85.7531 28.5809 80.3289 29.4861 76.7129 28.9688C76.5837 31.0381 76.1963 34.0126 75.938 35.9525ZM74.5174 47.4625C80.0707 51.0836 91.3064 45.7812 84.0742 39.1856C79.2958 38.2803 78.5209 38.4096 75.5505 38.2803C75.2922 42.0308 75.034 43.8413 74.5174 47.4625Z" fill="#496B44"/>
<path d="M101.121 31.1675C100.863 37.6338 100.734 47.5919 99.4425 52.7649C98.9259 54.9634 94.9224 53.0236 95.0515 51.3423C95.3098 45.9106 97.5053 36.7285 99.055 30.5208C99.8299 30.7795 100.347 30.9088 101.121 31.1675ZM99.3133 27.2877C97.5053 24.9598 100.476 20.5627 102.8 23.6665C104.608 26.1237 101.38 29.8742 99.3133 27.2877Z" fill="#496B44"/>
<path d="M124.109 35.9525C118.685 34.6593 116.102 35.4352 114.294 36.9871C111.195 40.8669 108.87 46.2986 110.549 51.601C111.453 54.1875 114.811 54.5755 120.364 53.9288C122.301 53.5409 123.205 53.2822 123.335 56.386C117.523 57.6793 108.095 57.162 107.062 52.1183C105.9 47.3332 107.32 36.9871 112.357 33.366C114.553 31.8141 121.656 32.0727 124.497 34.0126C124.368 34.7886 124.239 35.1766 124.109 35.9525Z" fill="#496B44"/>
<path d="M144.385 58.0673C146.064 54.5755 149.422 50.1784 151.618 46.9452C148.518 42.8068 147.485 39.8323 145.677 34.7886C146.581 34.7886 146.968 34.7886 147.743 34.7886C149.164 38.0217 151.23 41.1256 153.555 44.2294C156.009 41.2549 157.3 37.8924 160.658 35.4352C162.466 36.4698 162.724 37.3751 161.949 38.927C159.625 41.5135 157.946 44.6174 155.879 47.4625C158.333 50.825 160.916 54.1875 162.724 57.4206C162.853 60.2658 159.237 59.6192 158.333 57.8086C157.429 55.7394 155.75 52.6356 153.813 49.9197C151.876 52.6356 148.389 56.386 146.452 59.1019C145.677 58.7139 145.289 58.4552 144.385 58.0673Z" fill="#496B44"/>
<path d="M168.148 36.47C171.248 33.6248 177.447 32.7196 180.288 35.8234C185.066 40.9964 184.033 52.8944 183.517 57.6795C183.258 60.3953 178.997 58.3261 179.513 56.1276C176.93 58.4554 173.443 59.7487 170.344 58.4554C162.208 55.093 167.89 45.1349 173.702 42.6777C174.993 42.1604 177.447 41.7724 179.126 41.9017C178.997 40.0911 178.609 38.6685 178.222 38.2806C176.026 35.694 172.668 36.47 169.181 38.7979C168.665 37.8926 168.536 37.5046 168.148 36.47ZM179.255 44.3589C174.476 44.2296 170.473 47.592 169.698 51.8598C169.181 54.9636 172.152 56.5155 174.476 55.4809C175.768 54.9636 178.997 53.6704 179.384 53.0237C180.159 51.6012 179.513 46.9454 179.255 44.3589Z" fill="#496B44"/>
<path d="M189.845 34.6593C189.845 35.1766 189.845 35.5645 189.974 36.0818C195.269 32.7194 200.047 34.4006 203.018 38.1511C206.117 42.1602 205.73 49.7904 204.18 54.3168C202.501 59.1019 195.915 60.1365 191.653 58.0673C191.911 61.9471 192.815 66.6028 192.557 69.8359C192.299 72.0345 188.166 70.9999 187.908 69.1893C186.616 59.1019 187.908 45.9106 187.778 34.2713C188.553 34.4006 189.07 34.5299 189.845 34.6593ZM191.265 53.6702C193.073 56.6447 199.143 56.9033 200.693 52.3769C201.984 48.3678 202.63 40.4789 198.885 37.6338C197.464 36.4698 191.136 37.1165 190.49 39.0563C190.749 44.876 191.007 47.7212 191.265 53.6702Z" fill="#496B44"/>
<path d="M221.744 31.0381C223.035 34.0126 225.231 53.1528 226.006 55.0927C225.36 57.8086 221.744 56.5153 221.356 54.7048C220.969 52.5062 220.969 49.5317 220.84 46.8159C207.925 51.2129 205.988 39.8323 206.763 32.8487C207.667 32.978 208.054 32.978 208.958 33.1073C209.992 39.315 209.992 47.3332 220.452 42.8068C220.194 40.0909 220.065 32.3313 219.807 31.814C220.581 31.5554 220.969 31.4261 221.744 31.0381Z" fill="#496B44"/>
<path d="M233.754 66.603C236.467 61.1713 236.983 59.7487 239.566 53.541C232.98 49.5319 229.493 38.5392 228.201 31.5556C229.363 31.4263 229.88 31.4263 230.913 31.4263C233.238 37.8926 234.917 45.7815 240.341 50.4372C242.924 44.2295 245.378 35.5647 244.344 29.2277C245.248 29.2277 246.282 29.0984 248.219 29.4864C248.09 42.1603 242.924 56.5155 237.112 67.7669C235.692 67.2496 235.046 67.1203 233.754 66.603Z" fill="#496B44"/>
<path d="M258.421 26.2532C261.392 25.3479 263.716 24.572 266.816 25.4773C270.174 26.3825 270.432 33.4955 268.236 35.306C272.627 36.9873 274.306 41.1257 273.144 45.2642C271.594 51.0838 260.359 53.153 255.838 50.0492C255.322 45.7815 254.934 41.643 254.418 37.3753C254.03 34.4008 253.772 31.2969 253.385 28.3224C255.451 27.5465 256.355 27.1585 258.421 26.2532ZM257.388 36.7286C260.875 35.5647 266.17 36.3407 265.654 28.8397C264.233 26.5119 259.455 29.0984 255.968 29.8744C256.355 31.8142 257.001 34.9181 257.388 36.7286ZM259.971 48.1093C266.428 49.6612 275.21 40.8671 266.299 37.1166C261.521 37.8926 260.875 38.1512 258.034 39.0565C258.809 42.6776 259.196 44.4882 259.971 48.1093Z" fill="#496B44"/>
<path d="M276.243 25.3477C278.697 21.8559 284.638 19.7867 287.996 22.1145C293.807 26.1237 295.228 38.0216 295.615 42.8067C295.874 45.5226 291.354 44.3586 291.354 42.0308C289.287 44.8759 286.059 46.8158 282.83 46.2985C274.177 44.7466 277.664 33.7539 282.83 30.2621C283.992 29.4861 286.317 28.5808 287.996 28.3222C287.479 26.5116 286.833 25.3477 286.317 24.9597C283.605 23.0198 280.505 24.3131 277.535 27.4169C277.147 26.641 276.889 26.253 276.243 25.3477ZM288.9 30.6501C284.25 31.5553 280.893 35.6938 281.151 39.9615C281.28 43.0654 284.509 43.9706 286.575 42.5481C287.737 41.7721 290.708 39.8322 290.966 39.1856C291.224 37.6337 289.675 33.2366 288.9 30.6501Z" fill="#496B44"/>
<path d="M311.113 16.1655C313.437 23.1491 317.312 31.1673 318.216 36.987C318.474 39.1856 314.212 39.0562 313.567 37.375C312.792 35.1765 312.404 32.202 311.888 29.4861C308.53 30.2621 305.301 31.426 301.814 31.814C302.718 34.5298 303.622 37.2457 304.526 39.9615C304.268 42.6774 300.523 41.9014 299.877 40.2202C297.94 34.6592 296.39 27.0289 295.228 20.1746C296.132 20.1746 296.519 20.1746 297.423 20.0453C298.586 23.1491 300.006 29.0981 300.91 29.6154C302.073 30.2621 308.143 28.4515 311.371 27.1582C311.371 27.1582 308.917 17.0708 308.788 16.1655C309.692 16.2949 310.209 16.2949 311.113 16.1655Z" fill="#496B44"/>
<path d="M333.713 9.31152C336.296 16.1658 340.687 23.9254 341.721 29.8744C342.108 32.0729 337.846 32.2022 337.071 30.521C336.167 28.3225 335.651 25.348 335.005 22.7614C331.647 23.6667 328.419 24.96 325.061 25.6066C326.094 28.1931 327.127 30.909 328.16 33.4955C328.031 36.2113 324.157 35.694 323.511 34.0128C321.315 28.4518 319.378 20.9509 317.958 14.2259C318.862 14.0966 319.249 14.0966 320.153 14.0966C321.445 17.2004 323.124 23.0201 324.028 23.5374C325.319 24.184 331.131 21.9855 334.359 20.5629C334.359 20.5629 331.518 10.6048 331.26 9.6995C332.422 9.44085 332.809 9.31152 333.713 9.31152Z" fill="#496B44"/>
<path d="M366 22.5027C366.129 25.2186 362.255 24.9599 361.48 23.2787C360.317 20.6922 359.413 17.071 358.38 13.8379C357.347 15.0018 356.185 15.9071 354.764 16.5537C355.023 24.3133 353.214 28.3224 345.595 33.1075C345.078 32.4608 344.691 32.2022 344.174 31.5556C350.244 27.9344 351.794 22.8907 350.632 17.459C347.403 17.459 344.303 15.7778 343.141 12.674C341.85 9.31148 342.108 5.30237 346.628 3.23315C350.373 1.42259 353.344 0.387978 356.443 0C360.188 9.05282 362.126 13.5792 366 22.5027ZM354.635 3.62113C351.277 4.39709 344.82 5.43169 345.595 9.95811C346.628 15.5191 356.572 16.0364 357.347 10.2168C356.314 7.63024 355.797 6.20765 354.635 3.62113Z" fill="#496B44"/>
</svg>
