<svg width="10" height="10" viewBox="0 0 10 10" fill="none" xmlns="http://www.w3.org/2000/svg">
<mask id="path-1-inside-1" fill="white">
<path fill-rule="evenodd" clip-rule="evenodd" d="M6 0H4V4L0 4V6H4V10H6V6H10V4L6 4V0Z"/>
</mask>
<path fill-rule="evenodd" clip-rule="evenodd" d="M6 0H4V4L0 4V6H4V10H6V6H10V4L6 4V0Z" fill="#F15E25"/>
<path d="M4 0V-1H3V0H4ZM6 0H7V-1H6V0ZM4 4V5H5V4H4ZM0 4L-5.96046e-08 3H-1V4H0ZM0 6H-1V7H0V6ZM4 6H5V5H4V6ZM4 10H3V11H4V10ZM6 10V11H7V10H6ZM6 6V5H5V6H6ZM10 6V7H11V6H10ZM10 4H11V3H10V4ZM6 4H5V5L6 5V4ZM4 1H6V-1H4V1ZM5 4V0H3V4H5ZM5.96046e-08 5L4 5V3L-5.96046e-08 3L5.96046e-08 5ZM1 6V4H-1V6H1ZM4 5H0V7H4V5ZM5 10V6H3V10H5ZM6 9H4V11H6V9ZM5 6V10H7V6H5ZM10 5H6V7H10V5ZM9 4V6H11V4H9ZM6 5H10V3L6 3V5ZM5 0V4H7V0H5Z" fill="#36C233" mask="url(#path-1-inside-1)"/>
</svg>
