<svg width="18" height="19" viewBox="0 0 18 19" fill="none" xmlns="http://www.w3.org/2000/svg">
<path fill-rule="evenodd" clip-rule="evenodd" d="M4.90219 0H13.0978C15.7993 0 18 2.3308 18 5.17597V13.824C18 16.6692 15.7993 19 13.0978 19H4.90219C2.20067 18.9839 0 16.6692 0 13.824V5.17597C0 2.3308 2.20067 0 4.90219 0ZM4.90219 1.94501H13.0978C14.7825 1.94501 16.1636 3.40778 16.1636 5.17597V13.824C16.1636 15.6083 14.7825 17.055 13.0978 17.055H4.90219C3.21754 17.055 1.83643 15.5922 1.83643 13.824V5.17597C1.83643 3.39171 3.21754 1.94501 4.90219 1.94501ZM9 14.4349C6.4199 14.4349 4.32546 12.2327 4.32546 9.5C4.32546 6.76734 6.4199 4.56514 9 4.56514C11.5801 4.56514 13.6745 6.76734 13.6745 9.5C13.6594 12.2166 11.5801 14.4349 9 14.4349ZM9 6.51015C10.5632 6.51015 11.8229 7.84433 11.8229 9.5C11.8229 11.1557 10.5632 12.4898 9 12.4898C7.43676 12.4898 6.16189 11.1557 6.16189 9.5C6.16189 7.84433 7.42159 6.51015 9 6.51015ZM13.9629 5.32064C13.4014 5.32064 12.946 4.83841 12.946 4.24365C12.946 3.6489 13.4014 3.16667 13.9629 3.16667C14.5245 3.16667 14.9798 3.6489 14.9798 4.24365C14.9949 4.83841 14.5396 5.32064 13.9629 5.32064Z" fill="#36C233"/>
</svg>
