<svg width="20" height="21" viewBox="0 0 20 21" fill="none" xmlns="http://www.w3.org/2000/svg">
<g clip-path="url(#clip0)">
<path d="M4.59998 7.1V2.2C4.59998 1.3 5.39998 0.5 6.29998 0.5H17.2C18.2 0.5 18.9 1.3 18.9 2.2V17.1C18.9 18 18.3 18.7 17.5 18.8" stroke="#9B9B9B" stroke-miterlimit="10"/>
<path d="M10.7 18.8H6.29998C5.29998 18.8 4.59998 18 4.59998 17.1V12.2" stroke="#9B9B9B" stroke-miterlimit="10"/>
<path d="M17.7 18.7L11.7 20.4C11.2 20.6 10.7 20.2 10.7 19.6V3.40001C10.7 2.80001 11.1 2.20001 11.7 2.10001L17.8 0.600006" stroke="#9B9B9B" stroke-miterlimit="10"/>
<path d="M12.8 10V13.1" stroke="#9B9B9B" stroke-miterlimit="10"/>
<path d="M0 9.70001H9.2" stroke="#9B9B9B" stroke-miterlimit="10"/>
<path d="M6.40002 6.79999L9.20002 9.69999L6.40002 12.5" stroke="#9B9B9B" stroke-miterlimit="10"/>
</g>
<defs>
<clipPath id="clip0">
<rect width="19.4" height="21" fill="white"/>
</clipPath>
</defs>
</svg>
