<svg width="21" height="21" viewBox="0 0 21 21" fill="none" xmlns="http://www.w3.org/2000/svg">
<path d="M5.59985 7.1V2.2C5.59985 1.3 6.39985 0.5 7.29985 0.5H18.1999C19.1999 0.5 19.8999 1.3 19.8999 2.2V17.1C19.8999 18 19.2999 18.7 18.4999 18.8" stroke="#9B9B9B" stroke-miterlimit="10"/>
<path d="M11.6999 18.8H7.29985C6.29985 18.8 5.59985 18 5.59985 17.1V12.2" stroke="#9B9B9B" stroke-miterlimit="10"/>
<path d="M18.7 18.7L12.7 20.4C12.2 20.6 11.7 20.2 11.7 19.6V3.40001C11.7 2.80001 12.1 2.20001 12.7 2.10001L18.8 0.600006" stroke="#9B9B9B" stroke-miterlimit="10"/>
<path d="M13.8 10V13.1" stroke="#9B9B9B" stroke-miterlimit="10"/>
<path d="M10.2 9.59998L0.999951 9.59997" stroke="#9B9B9B" stroke-miterlimit="10"/>
<path d="M3.80005 12.5L1.00005 9.6L3.80005 6.8" stroke="#9B9B9B" stroke-miterlimit="10"/>
</svg>
