<svg width="21" height="20" viewBox="0 0 21 20" fill="none" xmlns="http://www.w3.org/2000/svg">
<path fill-rule="evenodd" clip-rule="evenodd" d="M10.4796 18.2134C8.43816 17.3625 6.72486 15.341 5.18864 11.9366C3.64493 8.45426 3.28975 5.95295 4.09891 4.01165C4.43052 3.21604 5.00032 2.51969 5.77425 1.90844C7.28983 0.859237 9.22405 1.10513 10.0931 1.99031L10.2367 2.12487L9.07802 5.86287L8.93615 5.9158C8.34215 6.19116 7.96383 6.3323 7.3831 6.57584C7.4217 7.8246 7.60795 8.91077 8.41757 10.705C9.20644 12.4533 9.93363 13.3914 10.8707 14.3049C11.459 14.1392 11.8505 13.9662 12.4728 13.8147L12.6147 13.7618L16.2927 15.6684L16.2945 15.8559C16.3463 17.0728 15.1595 18.4831 13.2835 18.6724C12.321 18.6821 11.3302 18.568 10.4796 18.2134Z" fill="#36C233"/>
</svg>
