<svg width="19" height="21" viewBox="0 0 19 21" fill="none" xmlns="http://www.w3.org/2000/svg">
<path d="M14.6 2.89999H16.5C17.6 2.89999 18.5 3.79999 18.5 4.89999V18.5C18.5 19.6 17.6 20.5 16.5 20.5H2.5C1.4 20.5 0.5 19.6 0.5 18.5V4.89999C0.5 3.79999 1.4 2.89999 2.5 2.89999H4.4" stroke="#9B9B9B" stroke-miterlimit="10"/>
<path d="M6.00002 0.5H13C13.9 0.5 14.6 1.2 14.6 2.1V3.8C14.6 4.7 13.9 5.4 13 5.4H6.00002C5.10002 5.4 4.40002 4.7 4.40002 3.8V2.1C4.40002 1.2 5.10002 0.5 6.00002 0.5Z" stroke="#9B9B9B" stroke-miterlimit="10"/>
<path d="M3.90002 9.5H15.1" stroke="#9B9B9B" stroke-miterlimit="10"/>
<path d="M3.90002 12.9H15.1" stroke="#9B9B9B" stroke-miterlimit="10"/>
<path d="M3.90002 16.4H10.7" stroke="#9B9B9B" stroke-miterlimit="10"/>
</svg>
